PathFileType	3	(X/Y/Z)	C:\Users\koon_\Desktop\
DataRate	CameraRate	NumFrames	NumMarkers	Units	OrigDataRate	OrigDataStartFrame	OrigNumFrames
100.0	100.0	11	27	mm	100.0	1232	2463	
Frame#	Time	get:LFHD			get:RFHD			get:LBHD			get:RBHD			get:C7			get:T10			get:CLAV			get:STRN			get:RBAK			get:LSHO			get:LUPA			get:LELB			get:LFRA			get:LWRA			get:LWRB			get:LFIN			get:RSHO			get:RUPA			get:RELB			get:RFRA			get:RWRA			get:RWRB			get:RFIN			get:LASI			get:RASI			get:LPSI			get:RPSI			
		X1	Y1	Z1	X2	Y2	Z2	X3	Y3	Z3	X4	Y4	Z4	X5	Y5	Z5	X6	Y6	Z6	X7	Y7	Z7	X8	Y8	Z8	X9	Y9	Z9	X10	Y10	Z10	X11	Y11	Z11	X12	Y12	Z12	X13	Y13	Z13	X14	Y14	Z14	X15	Y15	Z15	X16	Y16	Z16	X17	Y17	Z17	X18	Y18	Z18	X19	Y19	Z19	X20	Y20	Z20	X21	Y21	Z21	X22	Y22	Z22	X23	Y23	Z23	X24	Y24	Z24	X25	Y25	Z25	X26	Y26	Z26	X27	Y27	Z27	
1232	12.31	106.70598	1687.2917	-118.87592	-34.115883	1684.9733	-111.46433	75.623978	1644.6522	-272.1297	-54.282429	1619.3655	-262.83707	34.824345	1455.339	-237.80638	24.304449	1243.4077	-257.88254	45.80373	1411.2795	-42.072372	59.961304	1214.9918	18.587292	-42.403912	1376.1418	-254.47813	167.5065	1478.5437	-170.20294	290.29019	1371.2306	-160.31432	369.24466	1181.616	-158.84154	347.73917	1065.0193	-59.259041	309.77228	982.28491	-52.408997	390.42416	974.36023	-84.404457	341.73059	891.83881	-46.879356	-91.55883	1459.2135	-147.86116	-230.63274	1271.158	-97.266808	-271.89709	1166.3843	-156.80753	-305.74252	1119.6823	-77.196068	-335.93756	961.61218	-75.709656	-366.02496	980.99664	-150.65022	-371.89124	879.5766	-108.31772	176.01076	1010.2812	-43.235165	-88.05191	996.78235	-19.430756	65.028992	1073.205	-245.34006	-23.670443	1071.4714	-239.22174
1233	12.32	107.3157	1700.0562	-120.74495	-33.788612	1698.0267	-113.49161	76.558723	1657.8958	-274.1701	-53.53207	1633.2766	-265.54419	34.562469	1472.0703	-239.79141	23.464067	1259.905	-259.11523	45.225533	1427.0544	-44.313374	59.271278	1230.9663	17.49271	-41.940529	1392.7842	-257.07266	165.82605	1493.7329	-172.71906	291.5817	1390.5291	-163.75516	377.1369	1203.2045	-162.54434	354.14221	1086.2294	-62.912449	314.59006	1004.2602	-52.683956	395.09833	994.43774	-84.515259	343.60062	913.21259	-47.825085	-90.432114	1475.2759	-150.10036	-233.36067	1290.3677	-99.714149	-274.97189	1185.818	-159.24962	-313.32916	1141.5603	-80.253555	-347.95483	980.70135	-78.201889	-375.12405	1000.7885	-153.74037	-383.50092	898.91638	-113.63846	175.47078	1025.2003	-42.563164	-87.297485	1011.3481	-17.590658	65.345169	1092.2463	-242.49625	-23.735003	1090.6625	-235.77817
1234	12.33	107.84532	1713.3058	-122.49949	-33.249702	1711.7411	-115.58871	77.401939	1669.8694	-275.90439	-52.687187	1645.5232	-267.05878	34.311176	1487.9739	-241.20329	22.500658	1275.5952	-260.12018	45.093494	1441.165	-45.365749	58.894058	1245.2212	15.925327	-41.960125	1408.2924	-258.96573	164.56992	1508.1854	-174.46301	292.87808	1408.1218	-166.60204	385.082	1223.1566	-165.63562	361.18188	1106.5442	-64.727348	320.38019	1025.3102	-53.425003	400.40735	1013.4003	-84.624352	346.90414	933.474	-48.093433	-90.444893	1490.1333	-151.76833	-236.23431	1307.7385	-101.46317	-278.54776	1203.778	-161.70026	-321.2507	1161.9694	-83.432434	-360.09329	999.42499	-79.830696	-385.12088	1020.4926	-156.01918	-396.80923	918.76392	-117.03835	174.75114	1039.3649	-43.722694	-86.682732	1025.0532	-17.338436	65.515503	1109.6683	-241.86642	-24.314606	1108.5526	-234.55292
1235	12.34	108.21404	1726.5485	-124.34594	-32.727333	1725.1953	-117.67805	77.937645	1681.2137	-277.18784	-52.097443	1656.698	-267.89233	33.81422	1502.7683	-241.93813	21.336178	1290.187	-261.23013	44.789009	1454.1952	-45.277328	58.72192	1257.7734	14.253564	-42.782764	1422.3206	-260.07327	163.91974	1521.3116	-175.05869	294.05444	1423.8296	-168.8681	392.91037	1241.3557	-168.02499	368.54822	1125.8651	-66.348152	326.95712	1045.3534	-53.198917	406.61032	1031.7551	-84.993713	351.95377	953.24207	-47.2775	-91.220345	1503.4825	-152.34671	-239.50159	1323.1633	-102.69339	-283.12762	1220.3989	-164.2401	-329.29803	1180.4867	-86.604927	-371.98135	1018.3447	-81.353523	-396.409	1040.0676	-157.44089	-411.90479	939.59558	-119.95802	174.05174	1052.9917	-46.019386	-86.208427	1037.7172	-18.749445	65.14164	1125.1715	-243.82338	-25.448992	1124.1243	-234.97273
1236	12.35	108.55924	1738.8733	-125.71255	-32.3606	1737.3035	-118.95334	78.217232	1691.8778	-278.10919	-51.822533	1667.3279	-268.53989	32.791275	1516.4995	-242.20387	20.040173	1303.5819	-262.53293	44.16246	1466.2733	-44.116898	58.209808	1268.6539	12.76219	-44.702282	1434.7562	-260.83569	163.58563	1532.7197	-174.97243	295.20737	1438.1072	-170.47887	400.63788	1258.9474	-170.07541	376.58951	1144.5535	-67.629288	334.89001	1064.9208	-52.716129	413.7464	1049.7562	-85.665169	359.03967	972.65784	-45.529526	-92.03746	1515.3618	-151.5098	-243.29204	1337.2323	-103.38146	-289.01871	1235.8951	-166.3717	-336.86575	1198.0043	-88.959267	-384.03094	1037.7047	-82.635422	-407.64752	1060.1029	-158.70738	-428.60718	961.09583	-118.57697	173.81921	1065.7351	-49.337582	-86.269531	1049.6052	-21.221315	63.893787	1138.4192	-246.92001	-26.642084	1137.2961	-237.10826
1237	12.36	108.92948	1750.1277	-126.57678	-32.052452	1748.5165	-119.53693	78.347534	1701.7856	-278.5661	-51.610832	1677.2241	-268.71948	31.03731	1528.8816	-241.92801	18.875799	1315.5884	-263.7287	43.812752	1477.0709	-42.782753	57.570366	1278.2819	11.438296	-47.373936	1445.4624	-261.10544	162.89406	1542.5297	-174.66129	296.59772	1451.2814	-171.46863	408.04984	1276.0986	-172.12827	385.34589	1162.6401	-68.87603	344.0636	1083.9424	-51.835022	421.96222	1067.3429	-86.83287	367.9812	991.64197	-43.112785	-92.443535	1525.8699	-149.7204	-247.33023	1350.7068	-103.87276	-295.40518	1250.7828	-168.51144	-344.06729	1215.2777	-91.021683	-396.547	1057.6068	-83.660767	-418.93869	1080.225	-160.07486	-446.59326	983.74072	-117.44081	173.85529	1077.4709	-52.664356	-86.575989	1060.6606	-23.630287	62.187794	1149.2844	-250.28339	-27.49872	1147.8048	-239.96001
1238	12.37	109.2739	1760.5371	-127.00259	-31.600613	1758.9629	-119.64153	78.367043	1711.2323	-278.63419	-51.526028	1686.5874	-268.1926	29.399141	1539.7544	-241.47563	17.78879	1326.0356	-264.85556	43.964008	1486.093	-41.248631	57.49004	1286.8931	9.8046637	-49.947472	1455.0269	-261.25906	161.90071	1551.0674	-174.47842	298.06082	1463.5925	-171.93248	415.15176	1292.7056	-173.89259	394.87775	1180.1587	-69.926521	354.41113	1102.1245	-50.493874	431.0062	1084.4769	-87.91861	378.664	1010.0614	-40.420937	-92.153969	1535.4781	-148.19258	-251.08191	1363.6952	-104.14636	-301.40881	1265.7987	-170.86862	-351.11111	1232.3578	-93.124458	-409.47247	1078.0094	-84.746864	-430.01041	1100.1537	-161.56953	-465.4599	1007.5519	-115.803	174.04535	1088.0916	-55.11684	-87.073082	1070.6536	-25.625187	60.294411	1158.1973	-253.52803	-28.081001	1156.2837	-243.27339
1239	12.38	109.64083	1770.1274	-126.9398	-31.23728	1768.353	-119.21265	78.235046	1720.549	-278.52716	-51.566971	1695.6302	-267.47986	29.147581	1547.8441	-241.3022	16.911077	1335.2042	-266.05118	44.663628	1493.4375	-40.163078	57.704765	1294.6166	8.0053253	-51.812954	1464.1298	-260.4863	161.12584	1558.7445	-174.29314	299.59235	1475.1417	-172.08812	421.85071	1308.6277	-175.74963	404.88834	1197.129	-70.837715	365.73199	1119.6315	-48.584858	440.77774	1101.1821	-88.81929	390.61938	1027.8312	-37.598354	-91.195038	1544.4014	-146.80534	-254.50928	1376.3073	-104.74517	-306.33194	1280.7361	-173.2198	-358.21964	1249.2345	-95.840645	-422.91437	1098.9246	-85.431282	-440.64413	1119.7181	-163.42691	-484.90198	1032.6914	-114.02596	174.35252	1096.8807	-58.069607	-87.731514	1079.6146	-27.413355	58.514793	1165.3492	-256.82446	-28.90069	1162.8806	-246.41565
1240	12.39	109.9985	1778.5909	-126.59785	-30.910923	1776.5905	-118.37322	78.106575	1729.9871	-278.31885	-51.663483	1704.6437	-266.77283	30.246641	1553.639	-241.91461	16.083006	1343.104	-267.01648	45.692028	1499.4525	-39.531799	57.968655	1301.2065	6.4943695	-52.114086	1473.4523	-261.2186	161.08949	1566.0586	-173.8595	301.04688	1485.9514	-172.30194	428.14429	1323.7134	-177.53542	415.11838	1213.5247	-71.348831	377.84323	1136.5374	-46.378952	451.37717	1117.6658	-89.006844	403.88867	1045.1813	-34.479218	-89.636894	1552.6466	-145.23799	-257.38715	1388.5443	-105.7393	-310.64923	1295.0623	-175.66498	-365.30109	1265.7941	-98.947746	-436.70227	1120.342	-85.873581	-450.82816	1138.5326	-165.2411	-504.17508	1059.166	-112.56693	174.49092	1104.5259	-60.26223	-88.341431	1087.2721	-28.454201	56.993389	1170.8967	-260.24203	-29.908598	1168.0642	-249.6844
1241	12.4	110.17625	1786.0653	-125.88087	-30.656431	1783.6545	-117.36472	78.122902	1739.3741	-278.02164	-51.572514	1713.6664	-266.61996	31.589266	1558.7474	-242.34978	15.362023	1350.0255	-267.94678	46.871281	1504.5627	-39.507843	58.525257	1306.5458	5.2743917	-51.735249	1481.6987	-261.28427	161.26712	1572.74	-173.65474	302.38196	1495.9832	-172.88049	433.97241	1338.1447	-179.62318	425.69196	1229.6775	-71.634911	390.48462	1153.0045	-43.708069	462.89075	1134.187	-88.389626	418.28741	1062.2905	-30.789753	-87.728149	1560.1737	-144.13756	-259.92072	1400.4248	-107.5134	-314.64194	1308.3387	-178.58585	-372.06137	1281.9545	-102.32909	-450.56143	1142.4141	-86.306984	-460.50125	1156.5435	-166.96942	-522.74792	1086.7302	-111.32209	174.55609	1110.9752	-62.112118	-88.910851	1093.7156	-29.479036	55.855194	1175.0487	-263.63336	-31.105276	1172.4241	-253.41528
1242	12.41	110.34947	1792.4379	-124.79733	-30.520773	1789.6207	-116.40731	78.397011	1748.1284	-277.62302	-51.263229	1722.1331	-266.72864	32.246021	1563.9735	-242.80266	14.842952	1355.9895	-268.73248	48.212807	1508.89	-39.956448	59.40736	1310.9368	3.9854953	-51.266975	1488.5948	-261.03156	161.38287	1578.5297	-174.14052	303.43085	1505.2238	-174.20699	439.03827	1351.6608	-182.25096	436.14493	1245.8484	-71.654594	403.42841	1169.1411	-40.957115	475.22531	1150.9204	-86.757469	433.75003	1079.4856	-26.43759	-85.718178	1566.6144	-144.23758	-262.25616	1411.7133	-110.01161	-318.49249	1320.1671	-181.63516	-378.42056	1297.4719	-106.00108	-464.52322	1164.9086	-83.908524	-469.57547	1173.6044	-168.36809	-540.20758	1115.1327	-110.78984	174.47713	1116.0941	-64.052689	-89.329498	1098.9442	-31.032129	55.117092	1178.2074	-266.79645	-32.546776	1175.2494	-256.33557
